<svg xmlns="http://www.w3.org/2000/svg" xmlns:xlink="http://www.w3.org/1999/xlink" version="1.1" x="0px" y="0px" viewBox="0 0 100 125" enable-background="new 0 0 100 100" xml:space="preserve"><g><path fill="#000000" d="M49.852,11.225c-21.397,0-38.807,17.409-38.807,38.806s17.409,38.806,38.807,38.806   c21.398,0,38.807-17.408,38.807-38.806S71.25,11.225,49.852,11.225z M34,65.493V35.889L46.987,50.69L34,65.493z M56,65h-5V36h5V65z    M64,65h-5V36h5V65z"/><path fill="#000000" d="M49.852,5.5c-24.594,0-44.53,19.937-44.53,44.531c0,24.593,19.937,44.53,44.53,44.53   s44.531-19.937,44.531-44.53C94.383,25.437,74.445,5.5,49.852,5.5z M49.852,89.826c-21.944,0-39.796-17.852-39.796-39.795   c0-21.943,17.852-39.795,39.796-39.795c21.943,0,39.797,17.853,39.797,39.795C89.648,71.974,71.795,89.826,49.852,89.826z"/></g><text x="0" y="115" fill="#000000" font-size="5px" font-weight="bold" font-family="'Helvetica Neue', Helvetica, Arial-Unicode, Arial, Sans-serif">Created by Joris Millot</text><text x="0" y="120" fill="#000000" font-size="5px" font-weight="bold" font-family="'Helvetica Neue', Helvetica, Arial-Unicode, Arial, Sans-serif">from the Noun Project</text></svg>