<svg xmlns="http://www.w3.org/2000/svg" xmlns:xlink="http://www.w3.org/1999/xlink" viewBox="0 0 16 20" version="1.1" x="0px" y="0px"><title>067-volume up button</title><desc>Created with Sketch.</desc><g stroke="none" stroke-width="1" fill="none" fill-rule="evenodd"><g fill="#000000"><path d="M8,14.5 C4.416,14.5 1.5,11.584 1.5,8 C1.5,4.416 4.416,1.5 8,1.5 C11.584,1.5 14.5,4.416 14.5,8 C14.5,11.584 11.584,14.5 8,14.5 M8,0 C3.582,0 0,3.582 0,8 C0,12.418 3.582,16 8,16 C12.418,16 16,12.418 16,8 C16,3.582 12.418,0 8,0"/><path d="M11,9 L9,9 L9,11 L7,11 L7,9 L5,9 L5,7 L7,7 L7,5 L9,5 L9,7 L11,7 L11,9 Z M8,2.5 C4.968,2.5 2.5,4.967 2.5,8 C2.5,11.033 4.968,13.5 8,13.5 C11.032,13.5 13.5,11.033 13.5,8 C13.5,4.967 11.032,2.5 8,2.5 L8,2.5 Z"/></g></g><text x="0" y="31" fill="#000000" font-size="5px" font-weight="bold" font-family="'Helvetica Neue', Helvetica, Arial-Unicode, Arial, Sans-serif">Created by Creaticca Creative Agency</text><text x="0" y="36" fill="#000000" font-size="5px" font-weight="bold" font-family="'Helvetica Neue', Helvetica, Arial-Unicode, Arial, Sans-serif">from the Noun Project</text></svg>