<svg xmlns="http://www.w3.org/2000/svg" viewBox="0 0 24 30" x="0px" y="0px"><title>volume-down</title><path d="M13.6914,1.0381a.499.499,0,0,0-.5449.1084L6.293,8H3.5a.5.5,0,0,0-.5.5v6a.5.5,0,0,0,.5.5H6.293l6.8535,6.8535A.5.5,0,0,0,13.5,22a.4934.4934,0,0,0,.1914-.0381A.5.5,0,0,0,14,21.5V1.5A.5.5,0,0,0,13.6914,1.0381ZM4,9H6v5H4Zm9,11.293-6-6V8.707l6-6Z"/><path d="M20.5,11h-4a.5.5,0,0,0,0,1h4a.5.5,0,0,0,0-1Z"/><text x="0" y="39" fill="#000000" font-size="5px" font-weight="bold" font-family="'Helvetica Neue', Helvetica, Arial-Unicode, Arial, Sans-serif">Created by Travis Avery</text><text x="0" y="44" fill="#000000" font-size="5px" font-weight="bold" font-family="'Helvetica Neue', Helvetica, Arial-Unicode, Arial, Sans-serif">from the Noun Project</text></svg>