<svg xmlns="http://www.w3.org/2000/svg" viewBox="0 0 24 30" x="0px" y="0px"><title>volume-off</title><path d="M3.5,15H6.293l6.8535,6.8535A.5.5,0,0,0,13.5,22a.4934.4934,0,0,0,.1914-.0381A.5.5,0,0,0,14,21.5V1.5a.5.5,0,0,0-.8535-.3535L6.293,8H3.5a.5.5,0,0,0-.5.5v6A.5.5,0,0,0,3.5,15ZM13,20.293l-6-6V8.707l6-6ZM4,9H6v5H4Z"/><path d="M16.8535,9.1465a.5.5,0,0,0-.707.707L17.793,11.5l-1.6465,1.6465a.5.5,0,1,0,.707.707L18.5,12.207l1.6465,1.6465a.5.5,0,0,0,.707-.707L19.207,11.5l1.6465-1.6465a.5.5,0,0,0-.707-.707L18.5,10.793Z"/><text x="0" y="39" fill="#000000" font-size="5px" font-weight="bold" font-family="'Helvetica Neue', Helvetica, Arial-Unicode, Arial, Sans-serif">Created by Travis Avery</text><text x="0" y="44" fill="#000000" font-size="5px" font-weight="bold" font-family="'Helvetica Neue', Helvetica, Arial-Unicode, Arial, Sans-serif">from the Noun Project</text></svg>