<svg xmlns="http://www.w3.org/2000/svg" viewBox="0 0 24 30" x="0px" y="0px"><title>volume-max</title><path d="M2.5,15H5.293l6.8535,6.8535A.5.5,0,0,0,13,21.5V1.5a.5.5,0,0,0-.8535-.3535L5.293,8H2.5a.5.5,0,0,0-.5.5v6A.5.5,0,0,0,2.5,15ZM12,20.293l-6-6V8.707l6-6ZM3,9H5v5H3Z"/><path d="M14.2676,13.9746a.5.5,0,0,0,.707,0,3.4987,3.4987,0,0,0,0-4.9492.5.5,0,0,0-.707.707,2.4992,2.4992,0,0,1,0,3.5352A.5.5,0,0,0,14.2676,13.9746Z"/><path d="M16.3892,16.0962a.5.5,0,0,0,.707,0,6.5076,6.5076,0,0,0,0-9.1924.5.5,0,0,0-.707.707,5.5064,5.5064,0,0,1,0,7.7784A.5.5,0,0,0,16.3892,16.0962Z"/><path d="M19.2173,4.7827a.5.5,0,0,0-.707.707,8.4995,8.4995,0,0,1,0,12.0206.5.5,0,1,0,.707.707,9.499,9.499,0,0,0,0-13.4346Z"/><text x="0" y="39" fill="#000000" font-size="5px" font-weight="bold" font-family="'Helvetica Neue', Helvetica, Arial-Unicode, Arial, Sans-serif">Created by Travis Avery</text><text x="0" y="44" fill="#000000" font-size="5px" font-weight="bold" font-family="'Helvetica Neue', Helvetica, Arial-Unicode, Arial, Sans-serif">from the Noun Project</text></svg>